<?xml version="1.0" encoding="UTF-8" standalone="no"?>
<svg
   xmlns:dc="http://purl.org/dc/elements/1.1/"
   xmlns:cc="http://creativecommons.org/ns#"
   xmlns:rdf="http://www.w3.org/1999/02/22-rdf-syntax-ns#"
   xmlns:svg="http://www.w3.org/2000/svg"
   xmlns="http://www.w3.org/2000/svg"
   viewBox="0 0 1496 1496"
   xml:space="preserve"
   id="svg2"
   version="1.1"><metadata
     id="metadata8"><rdf:RDF><cc:Work
         rdf:about=""><dc:format>image/svg+xml</dc:format><dc:type
           rdf:resource="http://purl.org/dc/dcmitype/StillImage" /></cc:Work></rdf:RDF></metadata><defs
     id="defs6"><clipPath
       id="clipPath18"
       clipPathUnits="userSpaceOnUse"><path
         id="path16"
         d="M 0,1122 H 1122 V 0 H 0 Z" /></clipPath></defs><g
     transform="matrix(1.3333333,0,0,-1.3333333,0,1496)"
     id="g10"><g
       id="g12"><g
         clip-path="url(#clipPath18)"
         id="g14"><path
           id="path20"
           style="fill:#616e7d;fill-opacity:1;fill-rule:nonzero;stroke:none"
           d="m 351.958,727.436 h 153.111 v -17.65 H 351.958 Z m 0,44.507 H 651.305 V 754.292 H 351.958 Z m 0,44.507 H 651.305 V 798.8 H 351.958 Z m 162.39,-170.023 h 165.076 c 19.402,0 35.144,13.795 35.144,30.802 v 167.887 c 0,17.003 -15.742,30.798 -35.144,30.798 H 323.829 c -19.421,0 -35.138,-13.795 -35.138,-30.798 V 677.229 c 0,-17.007 15.717,-30.802 35.138,-30.802 h 142.932 l -4.703,-52.723 z" /><g
           transform="translate(833.3096,592.9595)"
           id="g22"><path
             id="path24"
             style="fill:#d91f33;fill-opacity:1;fill-rule:nonzero;stroke:none"
             d="m 0,0 v 114.917 c 0,10.646 -9.853,19.264 -21.981,19.264 H -102.85 V 73.587 c 0,-18.295 -16.987,-33.183 -37.86,-33.183 H -247.433 V 0 c 0,-10.633 9.841,-19.285 21.988,-19.285 h 108.483 l 32.729,-32.989 -2.954,32.989 h 65.206 C -9.853,-19.285 0,-10.633 0,0" /></g><g
           transform="translate(338.4629,484.9697)"
           id="g26"><path
             id="path28"
             style="fill:#616e7d;fill-opacity:1;fill-rule:nonzero;stroke:none"
             d="m 0,0 c 0,-52.965 42.963,-95.895 95.925,-95.895 52.979,0 95.919,42.93 95.919,95.895 0,53.007 -42.94,95.931 -95.919,95.931 C 42.963,95.931 0,53.007 0,0" /></g><g
           transform="translate(470.1133,261.5645)"
           id="g30"><path
             id="path32"
             style="fill:#616e7d;fill-opacity:1;fill-rule:nonzero;stroke:none"
             d="M 0,0 H -13.32 -58.143 L -47.024,73.033 -58.16,0 h -13.297 l -20.692,108.628 c 2.046,0.143 4.061,0.294 6.119,0.294 H 14.555 c 2.07,0 4.085,-0.151 6.131,-0.294 z m -91.241,118.46 c -49.808,0 -90.181,-40.389 -90.181,-90.176 v -43.763 h 291.376 v 43.763 c 0,49.787 -40.356,90.176 -90.164,90.176 z" /></g><g
           transform="translate(445.6748,334.5977)"
           id="g34"><path
             id="path36"
             style="fill:#ffffff;fill-opacity:1;fill-rule:nonzero;stroke:none"
             d="m 0,0 h 0.013 l 11.105,-73.033 h 13.32 L 45.125,35.595 c -2.046,0.142 -4.062,0.294 -6.131,0.294 H -61.592 c -2.057,0 -4.073,-0.152 -6.118,-0.294 l 20.692,-108.628 h 13.296 L -22.586,0 h 0.387 L -33.116,20.047 H 10.531 L -0.375,0 Z" /></g><g
           transform="translate(411.9707,261.5645)"
           id="g38"><path
             id="path40"
             style="fill:#d91f33;fill-opacity:1;fill-rule:nonzero;stroke:none"
             d="M 0,0 H 44.822 L 33.717,73.033 H 33.704 33.329 L 44.235,93.08 H 0.588 L 11.505,73.033 h -0.387 z" /></g><path
           id="path42"
           style="fill:#ffffff;fill-opacity:1;fill-rule:nonzero;stroke:none"
           d="m 351.958,798.799 h 299.347 v 17.65 H 351.958 Z" /><path
           id="path44"
           style="fill:#ffffff;fill-opacity:1;fill-rule:nonzero;stroke:none"
           d="m 351.958,754.292 h 299.347 v 17.651 H 351.958 Z" /><path
           id="path46"
           style="fill:#ffffff;fill-opacity:1;fill-rule:nonzero;stroke:none"
           d="m 351.958,709.786 h 153.111 v 17.65 H 351.958 Z" /><g
           transform="translate(709.6416,514.4346)"
           id="g48"><path
             id="path50"
             style="fill:#616e7d;fill-opacity:1;fill-rule:nonzero;stroke:none"
             d="m 0,0 c -38.285,-2.379 -69.478,-33.565 -71.851,-71.868 -2.783,-44.7 32.658,-81.824 76.778,-81.824 1.416,0 2.82,0.036 4.223,0.124 h 91.804 c 1.06,0 1.361,1.44 0.375,1.839 -11.347,4.691 -19.493,17.406 -19.493,32.418 v 41.085 H 81.8 l 0.036,1.458 C 81.836,-32.657 44.713,2.759 0,0" /></g><g
           transform="translate(733.9463,307.9473)"
           id="g52"><path
             id="path54"
             style="fill:#616e7d;fill-opacity:1;fill-rule:nonzero;stroke:none"
             d="M 0,0 14.755,-14.192 -19.378,-51.21 -53.512,-14.192 -38.775,0 c 0,0 -21.89,19.859 -22.859,21.578 -1.762,3.075 13.472,13.309 13.472,13.309 L -19.378,-51.21 9.394,34.887 c 0,0 15.213,-10.234 13.477,-13.309 C 21.885,19.859 0,0 0,0 m -63.922,45.535 c -39.907,0 -72.292,-32.366 -72.292,-72.304 V -61.861 H 97.444 v 35.092 c 0,39.938 -32.383,72.304 -72.309,72.304 z" /></g><g
           transform="translate(714.5684,256.7373)"
           id="g56"><path
             id="path58"
             style="fill:#ffffff;fill-opacity:1;fill-rule:nonzero;stroke:none"
             d="m 0,0 -28.784,86.097 c 0,0 -15.234,-10.234 -13.472,-13.309 0.969,-1.719 22.859,-21.578 22.859,-21.578 L -34.134,37.018 Z" /></g><g
           transform="translate(756.8174,329.5254)"
           id="g60"><path
             id="path62"
             style="fill:#ffffff;fill-opacity:1;fill-rule:nonzero;stroke:none"
             d="m 0,0 c 1.736,3.075 -13.478,13.309 -13.478,13.309 l -28.771,-86.097 34.133,37.017 -14.755,14.193 c 0,0 21.885,19.859 22.871,21.578" /></g></g></g></g></svg>
