<?xml version="1.0" encoding="UTF-8" standalone="no"?>
<svg
   xmlns:dc="http://purl.org/dc/elements/1.1/"
   xmlns:cc="http://creativecommons.org/ns#"
   xmlns:rdf="http://www.w3.org/1999/02/22-rdf-syntax-ns#"
   xmlns:svg="http://www.w3.org/2000/svg"
   xmlns="http://www.w3.org/2000/svg"
   viewBox="0 0 566.92798 566.92798"
   xml:space="preserve"
   id="svg2"
   version="1.1"><metadata
     id="metadata8"><rdf:RDF><cc:Work
         rdf:about=""><dc:format>image/svg+xml</dc:format><dc:type
           rdf:resource="http://purl.org/dc/dcmitype/StillImage" /></cc:Work></rdf:RDF></metadata><defs
     id="defs6"><clipPath
       id="clipPath18"
       clipPathUnits="userSpaceOnUse"><path
         id="path16"
         d="M 0,425.196 H 425.196 V 0 H 0 Z" /></clipPath><clipPath
       id="clipPath30"
       clipPathUnits="userSpaceOnUse"><path
         id="path28"
         d="m 199.005,252.566 h 94.484 V 129.954 h -94.484 z" /></clipPath><clipPath
       id="clipPath48"
       clipPathUnits="userSpaceOnUse"><path
         id="path46"
         d="M 217.449,270.799 H 270.33 V 250.056 H 217.449 Z" /></clipPath></defs><g
     transform="matrix(1.3333333,0,0,-1.3333333,0,566.928)"
     id="g10"><g
       id="g12"><g
         clip-path="url(#clipPath18)"
         id="g14"><g
           transform="translate(299.2187,127.9736)"
           id="g20"><path
             id="path22"
             style="fill:#df1f3c;fill-opacity:1;fill-rule:nonzero;stroke:none"
             d="m 0,0 c 0,-2.072 -1.683,-3.754 -3.758,-3.754 h -103.143 c -2.073,0 -3.756,1.682 -3.756,3.754 v 130.696 c 0,2.075 1.683,3.757 3.756,3.757 H -3.758 c 2.075,0 3.758,-1.682 3.758,-3.757 z" /></g><g
           id="g24"><g
             id="g26" /><g
             id="g36"><g
               id="g34"
               clip-path="url(#clipPath30)"><path
                 id="path32"
                 style="fill:#abcad8;fill-opacity:1;fill-rule:nonzero;stroke:none"
                 d="m 293.489,129.954 h -94.484 v 122.612 h 94.484 z" /></g></g></g><path
           id="path38"
           style="fill:#d0eefb;fill-opacity:1;fill-rule:nonzero;stroke:none"
           d="m 291.133,132.015 h -94.485 v 122.614 h 94.485 z" /><path
           id="path40"
           style="fill:#544eaa;fill-opacity:1;fill-rule:nonzero;stroke:none"
           d="m 252.949,269.943 h -18.117 v 7.733 h 18.117 z m 4.61,0.856 v 9.896 h -27.336 v -9.896 l -12.775,-4.391 v -16.351 h 26.442 26.44 v 16.351 z" /><g
           id="g42"><g
             id="g44" /><g
             id="g56"><g
               id="g54"
               clip-path="url(#clipPath48)"><g
                 id="g52"
                 transform="translate(222.752,255.3608)"><path
                   id="path50"
                   style="fill:#bdbcbc;fill-opacity:1;fill-rule:nonzero;stroke:none"
                   d="M 0,0 V 9.537 L 7.471,15.438 -5.304,11.047 V -5.304 H 47.578 V 0 Z" /></g></g></g></g><path
           id="path58"
           style="fill:#ffffff;fill-opacity:1;fill-rule:nonzero;stroke:none"
           d="m 230.485,213.524 h -24.747 v 25.336 h 24.747 z" /><g
           transform="translate(225.2725,221.5615)"
           id="g60"><path
             id="path62"
             style="fill:#b9ddf5;fill-opacity:1;fill-rule:nonzero;stroke:none"
             d="M 0,0 C -0.055,0.845 -0.956,1.111 -0.956,1.111 L -3.748,2.058 -4.931,2.5 C -5.837,1.891 -6.833,1.665 -7.16,1.603 -7.487,1.665 -8.485,1.891 -9.392,2.5 l -1.184,-0.442 -2.792,-0.947 c 0,0 -0.898,-0.266 -0.953,-1.111 l -0.881,-4.801 h 7.931 0.221 7.932 z" /></g><g
           transform="translate(222.3623,230.3296)"
           id="g64"><path
             id="path66"
             style="fill:#b9ddf5;fill-opacity:1;fill-rule:nonzero;stroke:none"
             d="m 0,0 c -0.056,-2.883 -2,-5.184 -4.346,-5.14 -2.346,0.045 -4.205,2.416 -4.153,5.299 0.055,2.884 2.001,5.181 4.347,5.137 C -1.807,5.253 0.055,2.885 0,0" /></g><path
           id="path68"
           style="fill:#ffffff;fill-opacity:1;fill-rule:nonzero;stroke:none"
           d="m 230.485,180.653 h -24.747 v 25.337 h 24.747 z" /><g
           transform="translate(225.2725,188.6904)"
           id="g70"><path
             id="path72"
             style="fill:#b9ddf5;fill-opacity:1;fill-rule:nonzero;stroke:none"
             d="M 0,0 C -0.055,0.845 -0.956,1.112 -0.956,1.112 L -3.748,2.059 -4.931,2.501 C -5.837,1.889 -6.833,1.664 -7.16,1.604 -7.487,1.664 -8.485,1.889 -9.392,2.501 l -1.184,-0.442 -2.792,-0.947 c 0,0 -0.898,-0.267 -0.953,-1.112 l -0.881,-4.803 h 7.931 0.221 7.932 z" /></g><g
           transform="translate(222.3623,197.46)"
           id="g74"><path
             id="path76"
             style="fill:#b9ddf5;fill-opacity:1;fill-rule:nonzero;stroke:none"
             d="m 0,0 c -0.056,-2.883 -2,-5.185 -4.346,-5.14 -2.346,0.042 -4.205,2.413 -4.153,5.298 0.055,2.883 2.001,5.182 4.347,5.137 C -1.807,5.25 0.055,2.883 0,0" /></g><path
           id="path78"
           style="fill:#ffffff;fill-opacity:1;fill-rule:nonzero;stroke:none"
           d="m 230.485,147.783 h -24.747 v 25.336 h 24.747 z" /><g
           transform="translate(225.2725,155.8203)"
           id="g80"><path
             id="path82"
             style="fill:#b9ddf5;fill-opacity:1;fill-rule:nonzero;stroke:none"
             d="M 0,0 C -0.055,0.845 -0.956,1.111 -0.956,1.111 L -3.748,2.056 -4.931,2.497 C -5.837,1.889 -6.833,1.664 -7.16,1.604 -7.487,1.664 -8.485,1.889 -9.392,2.497 l -1.184,-0.441 -2.792,-0.945 c 0,0 -0.898,-0.266 -0.953,-1.111 l -0.881,-4.804 h 7.931 0.221 7.932 z" /></g><g
           transform="translate(222.3623,164.5879)"
           id="g84"><path
             id="path86"
             style="fill:#b9ddf5;fill-opacity:1;fill-rule:nonzero;stroke:none"
             d="m 0,0 c -0.056,-2.882 -2,-5.183 -4.346,-5.139 -2.346,0.043 -4.205,2.414 -4.153,5.297 0.055,2.883 2.001,5.182 4.347,5.139 C -1.807,5.252 0.055,2.885 0,0" /></g><g
           transform="translate(282.04,235.2534)"
           id="g88"><path
             id="path90"
             style="fill:#a8dcf6;fill-opacity:1;fill-rule:nonzero;stroke:none"
             d="m 0,0 c 0,-0.532 -0.429,-0.961 -0.959,-0.961 h -44.922 c -0.532,0 -0.961,0.429 -0.961,0.961 0,0.528 0.429,0.96 0.961,0.96 H -0.959 C -0.429,0.96 0,0.528 0,0" /></g><g
           transform="translate(282.04,229.2129)"
           id="g92"><path
             id="path94"
             style="fill:#a8dcf6;fill-opacity:1;fill-rule:nonzero;stroke:none"
             d="m 0,0 c 0,-0.53 -0.429,-0.96 -0.959,-0.96 h -44.922 c -0.532,0 -0.961,0.43 -0.961,0.96 0,0.529 0.429,0.961 0.961,0.961 H -0.959 C -0.429,0.961 0,0.529 0,0" /></g><g
           transform="translate(282.04,223.1729)"
           id="g96"><path
             id="path98"
             style="fill:#a8dcf6;fill-opacity:1;fill-rule:nonzero;stroke:none"
             d="m 0,0 c 0,-0.53 -0.429,-0.96 -0.959,-0.96 h -44.922 c -0.532,0 -0.961,0.43 -0.961,0.96 0,0.532 0.429,0.96 0.961,0.96 H -0.959 C -0.429,0.96 0,0.532 0,0" /></g><g
           transform="translate(282.04,217.1348)"
           id="g100"><path
             id="path102"
             style="fill:#a8dcf6;fill-opacity:1;fill-rule:nonzero;stroke:none"
             d="m 0,0 c 0,-0.532 -0.429,-0.961 -0.959,-0.961 h -44.922 c -0.532,0 -0.961,0.429 -0.961,0.961 0,0.53 0.429,0.958 0.961,0.958 H -0.959 C -0.429,0.958 0,0.53 0,0" /></g><g
           transform="translate(282.04,202.3818)"
           id="g104"><path
             id="path106"
             style="fill:#a8dcf6;fill-opacity:1;fill-rule:nonzero;stroke:none"
             d="m 0,0 c 0,-0.531 -0.429,-0.96 -0.959,-0.96 h -44.922 c -0.532,0 -0.961,0.429 -0.961,0.96 0,0.529 0.429,0.959 0.961,0.959 H -0.959 C -0.429,0.959 0,0.529 0,0" /></g><g
           transform="translate(282.04,196.3428)"
           id="g108"><path
             id="path110"
             style="fill:#a8dcf6;fill-opacity:1;fill-rule:nonzero;stroke:none"
             d="m 0,0 c 0,-0.532 -0.429,-0.961 -0.959,-0.961 h -44.922 c -0.532,0 -0.961,0.429 -0.961,0.961 0,0.528 0.429,0.961 0.961,0.961 H -0.959 C -0.429,0.961 0,0.528 0,0" /></g><g
           transform="translate(282.04,190.3027)"
           id="g112"><path
             id="path114"
             style="fill:#a8dcf6;fill-opacity:1;fill-rule:nonzero;stroke:none"
             d="m 0,0 c 0,-0.53 -0.429,-0.961 -0.959,-0.961 h -44.922 c -0.532,0 -0.961,0.431 -0.961,0.961 0,0.529 0.429,0.961 0.961,0.961 H -0.959 C -0.429,0.961 0,0.529 0,0" /></g><g
           transform="translate(282.04,184.2617)"
           id="g116"><path
             id="path118"
             style="fill:#a8dcf6;fill-opacity:1;fill-rule:nonzero;stroke:none"
             d="m 0,0 c 0,-0.529 -0.429,-0.96 -0.959,-0.96 h -44.922 c -0.532,0 -0.961,0.431 -0.961,0.96 0,0.531 0.429,0.961 0.961,0.961 H -0.959 C -0.429,0.961 0,0.531 0,0" /></g><g
           transform="translate(282.04,169.5088)"
           id="g120"><path
             id="path122"
             style="fill:#a8dcf6;fill-opacity:1;fill-rule:nonzero;stroke:none"
             d="m 0,0 c 0,-0.528 -0.429,-0.958 -0.959,-0.958 h -44.922 c -0.532,0 -0.961,0.43 -0.961,0.958 0,0.532 0.429,0.961 0.961,0.961 H -0.959 C -0.429,0.961 0,0.532 0,0" /></g><g
           transform="translate(282.04,163.4717)"
           id="g124"><path
             id="path126"
             style="fill:#a8dcf6;fill-opacity:1;fill-rule:nonzero;stroke:none"
             d="m 0,0 c 0,-0.531 -0.429,-0.96 -0.959,-0.96 h -44.922 c -0.532,0 -0.961,0.429 -0.961,0.96 0,0.529 0.429,0.958 0.961,0.958 H -0.959 C -0.429,0.958 0,0.529 0,0" /></g><g
           transform="translate(282.04,157.4326)"
           id="g128"><path
             id="path130"
             style="fill:#a8dcf6;fill-opacity:1;fill-rule:nonzero;stroke:none"
             d="m 0,0 c 0,-0.532 -0.429,-0.961 -0.959,-0.961 h -44.922 c -0.532,0 -0.961,0.429 -0.961,0.961 0,0.528 0.429,0.959 0.961,0.959 H -0.959 C -0.429,0.959 0,0.528 0,0" /></g><g
           transform="translate(282.04,151.3926)"
           id="g132"><path
             id="path134"
             style="fill:#a8dcf6;fill-opacity:1;fill-rule:nonzero;stroke:none"
             d="m 0,0 c 0,-0.53 -0.429,-0.962 -0.959,-0.962 h -44.922 c -0.532,0 -0.961,0.432 -0.961,0.962 0,0.529 0.429,0.959 0.961,0.959 H -0.959 C -0.429,0.959 0,0.529 0,0" /></g></g></g></g></svg>
