<?xml version="1.0" encoding="UTF-8" standalone="no"?>
<svg
   xmlns:dc="http://purl.org/dc/elements/1.1/"
   xmlns:cc="http://creativecommons.org/ns#"
   xmlns:rdf="http://www.w3.org/1999/02/22-rdf-syntax-ns#"
   xmlns:svg="http://www.w3.org/2000/svg"
   xmlns="http://www.w3.org/2000/svg"
   viewBox="0 0 2666.6667 2666.6667"

   xml:space="preserve"
   id="svg2"
   version="1.1"><metadata
     id="metadata8"><rdf:RDF><cc:Work
         rdf:about=""><dc:format>image/svg+xml</dc:format><dc:type
           rdf:resource="http://purl.org/dc/dcmitype/StillImage" /></cc:Work></rdf:RDF></metadata><defs
     id="defs6" /><g
     transform="matrix(1.3333333,0,0,-1.3333333,0,2666.6667)"
     id="g10"><path
       id="path12"
       style="fill:#d91f33;fill-opacity:1;fill-rule:nonzero;stroke:none"
       d="M 667.834,742.556 H 913 v 299.101 H 667.834 Z" /><g
       transform="translate(790.3921,1112.415)"
       id="g14"><path
         id="path16"
         style="fill:#d91f33;fill-opacity:1;fill-rule:nonzero;stroke:none"
         d="M 0,0 -122.558,-70.758 H 0 122.559 Z" /></g><g
       transform="translate(949.7031,1060.2549)"
       id="g18"><path
         id="path20"
         style="fill:#d91f33;fill-opacity:1;fill-rule:nonzero;stroke:none"
         d="m 0,0 -9.888,-17.126 -160.435,92.626 9.897,17.128 z" /></g><g
       transform="translate(628.8521,1060.2549)"
       id="g22"><path
         id="path24"
         style="fill:#d91f33;fill-opacity:1;fill-rule:nonzero;stroke:none"
         d="M 0,0 9.887,-17.126 170.312,75.5 160.425,92.628 Z" /></g><path
       id="path26"
       style="fill:#d91f33;fill-opacity:1;fill-rule:nonzero;stroke:none"
       d="m 639.258,742.835 h 300.03 v 23.585 h -300.03 z" /><path
       id="path28"
       style="fill:#ffffff;fill-opacity:1;fill-rule:nonzero;stroke:none"
       d="m 779.242,960.341 h -57.595 v 57.595 h 57.595 z" /><path
       id="path30"
       style="fill:#ffffff;fill-opacity:1;fill-rule:nonzero;stroke:none"
       d="m 856.898,960.341 h -57.594 v 57.595 h 57.594 z" /><path
       id="path32"
       style="fill:#ffffff;fill-opacity:1;fill-rule:nonzero;stroke:none"
       d="m 856.898,882.683 h -57.594 v 57.596 h 57.594 z" /><path
       id="path34"
       style="fill:#ffffff;fill-opacity:1;fill-rule:nonzero;stroke:none"
       d="m 779.242,882.683 h -57.595 v 57.596 h 57.595 z" /><path
       id="path36"
       style="fill:#ffffff;fill-opacity:1;fill-rule:nonzero;stroke:none"
       d="m 856.898,805.023 h -57.594 v 57.597 h 57.594 z" /><path
       id="path38"
       style="fill:#ffffff;fill-opacity:1;fill-rule:nonzero;stroke:none"
       d="m 779.242,805.023 h -57.595 v 57.597 h 57.595 z" /></g></svg>
