<?xml version="1.0" encoding="UTF-8" standalone="no"?>
<svg

   xmlns:svg="http://www.w3.org/2000/svg"
   xmlns="http://www.w3.org/2000/svg"
   viewBox="0 0 666.66669 666.66669"
   xml:space="preserve"
   id="svg2"
   version="1.1">
     <g
     transform="matrix(1.3333333,0,0,-1.3333333,0,666.66667)"
     id="g10">
       <g
       id="g14"><g
         clip-path="url(#clipPath20)"
         id="g16"><g
           transform="translate(374.6367,411.1025)"
           id="g22"><path
             id="path24"
             d="m 0,0 v 0 c -29.432,0 -53.513,-24.081 -53.513,-53.512 v -10e-4 c 0,-29.431 24.081,-53.512 53.513,-53.512 29.432,0 53.512,24.081 53.512,53.512 v 10e-4 C 53.512,-24.081 29.432,0 0,0" /></g><g
           transform="translate(374.6367,411.1025)"
           id="g26"><path
             id="path28"
             d="m 0,0 v 0 c -29.432,0 -53.513,-24.081 -53.513,-53.512 v -10e-4 c 0,-29.431 24.081,-53.512 53.513,-53.512 29.432,0 53.512,24.081 53.512,53.512 v 10e-4 C 53.512,-24.081 29.432,0 0,0 Z" /></g><g
           transform="translate(385.3174,355.0503)"
           id="g30"><path
             id="path32"
             style="fill:#303038;fill-opacity:1;fill-rule:nonzero;stroke:none"
             d="M 0,0 H -9.489 V -30.537 H -23.558 V 0 h -6.689 v 11.955 h 6.689 v 7.736 c 0,5.531 2.628,14.194 14.194,14.194 L 1.056,33.841 V 22.237 h -7.561 c -1.24,0 -2.984,-0.62 -2.984,-3.258 V 11.943 H 1.229 Z" /></g></g></g></g>
</svg>
