<svg
   xmlns:dc="http://purl.org/dc/elements/1.1/"
   xmlns:cc="http://creativecommons.org/ns#"
   xmlns:rdf="http://www.w3.org/1999/02/22-rdf-syntax-ns#"
   xmlns:svg="http://www.w3.org/2000/svg"
   xmlns="http://www.w3.org/2000/svg"
   viewBox="0 0 666.66669 666.66669"
   height="666.66669"
   width="666.66669"
   xml:space="preserve"
   id="svg2"
   version="1.1"><metadata
     id="metadata8"><rdf:RDF><cc:Work
         rdf:about=""><dc:format>image/svg+xml</dc:format><dc:type
           rdf:resource="http://purl.org/dc/dcmitype/StillImage" /></cc:Work></rdf:RDF></metadata><defs
     id="defs6"><radialGradient
       id="radialGradient32"
       spreadMethod="pad"
       gradientTransform="matrix(338.59088,0,0,-338.59088,250,248.744)"
       gradientUnits="userSpaceOnUse"
       r="1"
       cy="0"
       cx="0"
       fy="0"
       fx="0"><stop
         id="stop24"
         offset="0"
         style="stop-opacity:1;stop-color:#ededed" /><stop
         id="stop26"
         offset="0.708639"
         style="stop-opacity:1;stop-color:#ededed" /><stop
         id="stop28"
         offset="0.86145445"
         style="stop-opacity:1;stop-color:#dadada" /><stop
         id="stop30"
         offset="1"
         style="stop-opacity:1;stop-color:#dadada" /></radialGradient><clipPath
       id="clipPath42"
       clipPathUnits="userSpaceOnUse"><path
         id="path40"
         d="M 0,500 H 500 V 0 H 0 Z" /></clipPath></defs><g
     transform="matrix(1.3333333,0,0,-1.3333333,0,666.66667)"
     id="g10"><g
       id="g12"><g
         id="g14"><g
           id="g20"><g
             id="g22"><path
               id="path34"
               style="fill:url(#radialGradient32);stroke:none"
               d="M 0,0 H 500 V 500 H 0 Z" /></g></g></g></g><g
       id="g36"><g
         clip-path="url(#clipPath42)"
         id="g38"><g
           transform="translate(365.416,325.6777)"
           id="g44"><path
             id="path46"
             d="m 0,0 c -9.823,0 -17.815,-7.992 -17.815,-17.815 v -29.863 c 0,-9.823 7.992,-17.815 17.815,-17.815 h 29.862 c 9.824,0 17.816,7.992 17.816,17.815 v 29.863 C 47.678,-7.992 39.686,0 29.862,0 Z M 29.862,-71.261 H 0 c -13.004,0 -23.583,10.579 -23.583,23.583 v 29.863 c 0,13.003 10.579,23.583 23.583,23.583 h 29.862 c 13.004,0 23.583,-10.58 23.583,-23.583 v -29.863 c 0,-13.004 -10.579,-23.583 -23.583,-23.583" /></g><g
           transform="translate(380.3467,306.5098)"
           id="g48"><path
             id="path50"
             style="fill:#0a000f;fill-opacity:1;fill-rule:nonzero;stroke:none"
             d="m 0,0 c -7.486,0 -13.577,-6.091 -13.577,-13.579 0,-7.487 6.091,-13.578 13.577,-13.578 7.487,0 13.579,6.091 13.579,13.578 C 13.579,-6.091 7.487,0 0,0 m 0,-33.063 c -10.743,0 -19.483,8.741 -19.483,19.484 0,10.745 8.74,19.485 19.483,19.485 10.744,0 19.485,-8.74 19.485,-19.485 0,-10.743 -8.741,-19.484 -19.485,-19.484" /></g><g
           transform="translate(407.0254,314.5356)"
           id="g52"><path
             id="path54"
             style="fill:#0a000f;fill-opacity:1;fill-rule:nonzero;stroke:none"
             d="m 0,0 c 0,-2.802 -2.271,-5.073 -5.073,-5.073 -2.802,0 -5.073,2.271 -5.073,5.073 0,2.802 2.271,5.073 5.073,5.073 C -2.271,5.073 0,2.802 0,0" /></g></g></g></g></svg>
