<?xml version="1.0" encoding="UTF-8" standalone="no"?>
<svg
   xmlns:dc="http://purl.org/dc/elements/1.1/"
   xmlns:cc="http://creativecommons.org/ns#"
   xmlns:rdf="http://www.w3.org/1999/02/22-rdf-syntax-ns#"
   xmlns:svg="http://www.w3.org/2000/svg"
   xmlns="http://www.w3.org/2000/svg"
   viewBox="0 0 2933.3333 2933.3333"

   xml:space="preserve"
   id="svg2"
   version="1.1"><metadata
     id="metadata8"><rdf:RDF><cc:Work
         rdf:about=""><dc:format>image/svg+xml</dc:format><dc:type
           rdf:resource="http://purl.org/dc/dcmitype/StillImage" /></cc:Work></rdf:RDF></metadata><defs
     id="defs6"><clipPath
       id="clipPath18"
       clipPathUnits="userSpaceOnUse"><path
         id="path16"
         d="M 0,2200 H 2200 V 0 H 0 Z" /></clipPath></defs><g
     transform="matrix(1.3333333,0,0,-1.3333333,0,2933.3333)"
     id="g10"><g
       id="g12"><g
         clip-path="url(#clipPath18)"
         id="g14"><g
           transform="translate(1406.6982,2001.1475)"
           id="g20"><path
             id="path22"
             style="fill:#d91f33;fill-opacity:1;fill-rule:nonzero;stroke:none"
             d="m 0,0 h -1016.046 c -67.451,0 -122.326,-54.875 -122.326,-122.327 v -1309.148 c 0,-67.451 54.875,-122.326 122.326,-122.326 h 837.304 c 8.297,0 15.023,6.727 15.023,15.024 0,8.297 -6.726,15.023 -15.023,15.023 h -837.304 c -50.883,0 -92.279,41.397 -92.279,92.279 v 1309.148 c 0,50.884 41.396,92.28 92.279,92.28 L 0,-30.047 c 18.809,0 34.111,-15.303 34.111,-34.112 v -1046.407 c 0,-8.297 6.727,-15.024 15.024,-15.024 8.297,0 15.023,6.727 15.023,15.024 V -64.159 C 64.158,-28.782 35.377,0 0,0" /></g><g
           transform="translate(968.376,1099.375)"
           id="g24"><path
             id="path26"
             style="fill:#d91f33;fill-opacity:1;fill-rule:nonzero;stroke:none"
             d="m 0,0 c 15.377,15.616 29.579,35.04 42.233,58.003 9.089,16.492 17.12,34.369 24.047,53.346 22.762,-6.641 45.154,-14.69 67.127,-24.135 C 129.913,83.361 126.314,79.581 122.61,75.877 87.577,40.843 45.702,15.138 0,0 m -320.18,75.877 c -3.704,3.704 -7.302,7.484 -10.797,11.337 21.974,9.444 44.366,17.494 67.127,24.135 6.929,-18.978 14.958,-36.854 24.047,-53.346 12.655,-22.963 26.858,-42.387 42.235,-58.003 -45.703,15.138 -87.578,40.843 -122.612,75.877 m 122.611,518.666 c -15.377,-15.616 -29.579,-35.039 -42.234,-58.002 -9.089,-16.492 -17.118,-34.369 -24.047,-53.346 -22.761,6.64 -45.153,14.69 -67.127,24.135 3.495,3.853 7.093,7.633 10.797,11.337 35.034,35.034 76.909,60.739 122.611,75.876 M 122.61,518.667 c 3.704,-3.704 7.303,-7.484 10.797,-11.338 C 111.434,497.885 89.042,489.835 66.28,483.195 59.353,502.172 51.322,520.049 42.233,536.541 29.579,559.504 15.377,578.927 0,594.543 45.702,579.406 87.577,553.7 122.61,518.667 M -83.761,164.578 V 282.249 H 66.819 C 65.615,234.526 58.687,188.782 46.628,147.667 4.196,157.879 -39.359,163.537 -83.761,164.578 m 0,-179.083 v 149.03 C -42.62,133.512 -2.246,128.339 37.112,119.049 30.937,102.511 23.862,86.92 15.918,72.505 -11.758,22.283 -46.699,-8.03 -83.761,-14.505 m -30.047,149.03 v -149.03 c -37.061,6.475 -72.004,36.788 -99.679,87.01 -7.945,14.415 -15.019,30.006 -21.195,46.544 39.359,9.29 79.733,14.464 120.874,15.476 m -150.581,147.724 h 150.581 V 164.578 c -44.401,-1.041 -87.958,-6.699 -130.389,-16.911 -12.059,41.114 -18.988,86.859 -20.192,134.582 m 150.581,147.717 V 312.295 h -150.581 c 1.204,47.723 8.133,93.467 20.192,134.582 42.431,-10.212 85.987,-15.87 130.389,-16.911 m 0,179.082 V 460.019 c -41.141,1.012 -81.515,6.186 -120.874,15.476 6.176,16.538 13.25,32.129 21.195,46.544 27.675,50.222 62.618,80.535 99.679,87.009 m 30.047,-149.029 v 149.029 c 37.062,-6.474 72.003,-36.787 99.679,-87.009 7.944,-14.415 15.019,-30.006 21.194,-46.544 -39.358,-9.29 -79.732,-14.463 -120.873,-15.476 M 66.819,312.295 h -150.58 v 117.671 c 44.402,1.041 87.957,6.699 130.389,16.911 12.059,-41.115 18.987,-86.859 20.191,-134.582 m 147.138,0 H 96.87 c -1.213,50.27 -8.504,98.632 -21.238,142.322 26.353,7.735 52.234,17.271 77.576,28.583 36.729,-49.56 57.824,-108.574 60.749,-170.905 M -350.777,483.2 c 25.342,-11.311 51.222,-20.848 77.576,-28.583 -12.735,-43.69 -20.026,-92.052 -21.238,-142.322 h -117.086 c 2.924,62.331 24.019,121.346 60.748,170.905 m -60.748,-200.951 h 117.086 c 1.212,-50.27 8.503,-98.632 21.238,-142.322 -26.354,-7.735 -52.234,-17.272 -77.575,-28.584 -36.73,49.56 -57.825,108.575 -60.749,170.906 M 153.208,111.343 c -25.342,11.312 -51.223,20.849 -77.576,28.584 12.734,43.69 20.025,92.052 21.238,142.322 h 117.087 c -2.925,-62.331 -24.02,-121.346 -60.749,-170.906 m 91.154,185.929 c 0,46.318 -9.075,91.258 -26.972,133.573 -17.284,40.863 -42.024,77.559 -73.534,109.068 -31.508,31.509 -68.205,56.249 -109.068,73.533 -42.314,17.898 -87.255,26.972 -133.572,26.972 -46.319,0 -91.259,-9.074 -133.573,-26.972 -40.864,-17.284 -77.559,-42.024 -109.069,-73.533 -31.509,-31.509 -56.249,-68.205 -73.532,-109.068 -17.897,-42.315 -26.973,-87.255 -26.973,-133.573 0,-46.318 9.076,-91.258 26.973,-133.573 12.24,-28.939 28.237,-55.775 47.713,-80.172 10e-4,-0.001 0.002,-0.002 0.002,-0.003 8.024,-10.052 16.624,-19.7 25.817,-28.894 31.51,-31.508 68.205,-56.249 109.069,-73.532 42.314,-17.898 87.254,-26.973 133.573,-26.973 46.317,0 91.258,9.075 133.572,26.973 40.863,17.283 77.56,42.024 109.068,73.532 31.51,31.51 56.25,68.206 73.534,109.069 17.897,42.315 26.972,87.255 26.972,133.573" /></g><g
           transform="translate(513.8691,833.4092)"
           id="g28"><path
             id="path30"
             style="fill:#d91f33;fill-opacity:1;fill-rule:nonzero;stroke:none"
             d="m 0,0 c -3.65,-3.756 -8.741,-5.581 -15.565,-5.581 h -17.176 v 43.403 h 17.176 c 6.831,0 11.921,-1.814 15.572,-5.544 C 3.674,28.526 5.458,23.257 5.458,15.99 5.458,9.016 3.671,3.784 0,0 m 25.54,39.743 c -3.547,6.793 -8.525,12.169 -14.795,15.977 -6.28,3.814 -13.621,5.746 -21.822,5.746 h -40.65 c -1.587,0 -3.11,-0.631 -4.232,-1.754 -1.123,-1.122 -1.754,-2.645 -1.754,-4.233 V -66.525 c 0,-1.588 0.631,-3.111 1.754,-4.233 1.122,-1.123 2.645,-1.754 4.232,-1.754 h 13 c 1.588,0 3.111,0.631 4.233,1.754 1.123,1.122 1.753,2.645 1.753,4.233 v 37.393 h 21.664 c 8.208,0 15.549,1.935 21.818,5.746 6.277,3.804 11.259,9.214 14.806,16.075 3.507,6.784 5.283,14.683 5.283,23.654 0,8.797 -1.78,16.669 -5.29,23.4" /></g><g
           transform="translate(594.1162,859.0859)"
           id="g32"><path
             id="path34"
             style="fill:#d91f33;fill-opacity:1;fill-rule:nonzero;stroke:none"
             d="m 0,0 12.635,-41.023 h -25.301 z m -48.981,-98.188 h 14.246 c 1.188,0 2.345,0.38 3.301,1.086 l 0.407,0.3 c 0.955,0.705 1.659,1.698 2.009,2.832 l 9.295,30.098 h 39.398 l 9.264,-30.092 c 0.35,-1.136 1.054,-2.13 2.01,-2.836 l 0.408,-0.301 c 0.956,-0.706 2.114,-1.087 3.302,-1.087 h 14.25 c 1.784,0 3.461,0.857 4.506,2.304 l 10e-4,0.001 c 1.045,1.447 1.331,3.307 0.771,5.001 L 13.714,31.436 c -0.419,1.267 -1.227,2.37 -2.309,3.151 -1.082,0.781 -2.382,1.202 -3.717,1.202 H -7.687 c -1.334,0 -2.633,-0.421 -3.715,-1.202 l -0.001,-0.001 c -1.081,-0.78 -1.889,-1.882 -2.309,-3.149 L -54.257,-90.881 c -0.562,-1.694 -0.275,-3.556 0.77,-5.003 1.045,-1.447 2.72,-2.304 4.506,-2.304" /></g><g
           transform="translate(816.5684,785.0547)"
           id="g36"><path
             id="path38"
             style="fill:#d91f33;fill-opacity:1;fill-rule:nonzero;stroke:none"
             d="m 0,0 c -3.295,-1.394 -7.338,-2.099 -12.022,-2.099 -4.67,0 -8.832,0.692 -12.361,2.051 -3.39,1.308 -6.143,3.181 -8.18,5.568 -1.099,1.285 -1.954,2.678 -2.576,4.209 -1.001,2.461 -3.5,3.976 -6.156,3.88 l -12.268,-0.44 c -4.126,-0.148 -7.05,-4.064 -6.09,-8.079 1.168,-4.89 3.138,-9.31 5.891,-13.201 4.147,-5.869 9.824,-10.427 16.874,-13.543 6.913,-3.065 15.035,-4.616 24.147,-4.616 9.607,0 18.052,1.665 25.091,4.949 7.194,3.358 12.816,8.211 16.716,14.425 3.894,6.205 5.87,13.593 5.87,22.058 0,10.676 -3.065,19.294 -9.112,25.611 C 19.937,46.91 10.569,51.491 -1.99,54.381 l -12.594,2.996 c -6.615,1.558 -11.477,3.664 -14.449,6.263 -2.644,2.314 -3.931,5.249 -3.931,9.063 0,3.048 0.736,5.585 2.257,7.759 1.561,2.239 3.759,3.962 6.714,5.267 3.061,1.348 6.766,2.033 11.012,2.033 4.088,0 7.694,-0.658 10.717,-1.955 2.942,-1.27 5.252,-3.031 7.064,-5.386 0.962,-1.25 1.715,-2.63 2.271,-4.175 0.943,-2.617 3.518,-4.287 6.298,-4.179 l 12.122,0.475 c 4.092,0.159 7.019,4.029 6.085,8.017 -1.094,4.67 -2.93,8.952 -5.488,12.792 -3.918,5.865 -9.29,10.487 -15.971,13.744 -6.601,3.212 -14.264,4.838 -22.78,4.838 -8.676,0 -16.5,-1.675 -23.263,-4.976 -6.855,-3.352 -12.316,-8.087 -16.223,-14.079 -3.941,-6.033 -5.968,-13.077 -6.027,-21.055 0,-10.272 3.13,-18.767 9.304,-25.249 6.009,-6.31 15.12,-10.923 27.088,-13.714 L -9.218,29.961 C -2.144,28.29 2.906,26.122 5.79,23.517 8.385,21.168 9.646,18.031 9.646,13.84 9.646,10.621 8.844,7.913 7.197,5.561 5.506,3.15 3.153,1.332 0,0" /></g><g
           transform="translate(712.8887,785.0547)"
           id="g40"><path
             id="path42"
             style="fill:#d91f33;fill-opacity:1;fill-rule:nonzero;stroke:none"
             d="m 0,0 c -3.294,-1.394 -7.338,-2.099 -12.021,-2.099 -4.671,0 -8.832,0.692 -12.362,2.051 -3.389,1.308 -6.142,3.181 -8.18,5.568 -1.098,1.285 -1.953,2.678 -2.575,4.209 -1.001,2.461 -3.5,3.976 -6.156,3.88 l -12.269,-0.44 c -4.125,-0.148 -7.049,-4.064 -6.09,-8.079 1.169,-4.89 3.139,-9.31 5.892,-13.201 4.147,-5.869 9.823,-10.427 16.874,-13.543 6.913,-3.065 15.035,-4.616 24.147,-4.616 9.607,0 18.052,1.665 25.091,4.949 7.194,3.358 12.816,8.211 16.716,14.425 3.894,6.205 5.87,13.593 5.87,22.058 0,10.676 -3.066,19.294 -9.113,25.611 C 19.938,46.91 10.57,51.491 -1.989,54.381 l -12.594,2.996 c -6.615,1.558 -11.478,3.664 -14.449,6.263 -2.644,2.314 -3.931,5.249 -3.931,9.063 0,3.048 0.736,5.585 2.256,7.759 1.561,2.239 3.76,3.962 6.715,5.267 3.061,1.348 6.765,2.033 11.012,2.033 4.088,0 7.694,-0.658 10.717,-1.955 2.942,-1.27 5.252,-3.031 7.064,-5.386 0.962,-1.25 1.715,-2.63 2.271,-4.175 0.943,-2.617 3.518,-4.287 6.298,-4.179 l 12.122,0.475 c 4.092,0.159 7.019,4.029 6.085,8.017 -1.094,4.67 -2.93,8.952 -5.489,12.792 -3.917,5.865 -9.289,10.487 -15.97,13.744 -6.601,3.212 -14.264,4.838 -22.78,4.838 -8.676,0 -16.5,-1.675 -23.263,-4.976 -6.855,-3.352 -12.316,-8.087 -16.223,-14.079 -3.941,-6.033 -5.968,-13.077 -6.027,-21.055 0,-10.272 3.13,-18.767 9.304,-25.249 6.009,-6.31 15.12,-10.923 27.088,-13.714 L -9.217,29.961 C -2.143,28.29 2.907,26.122 5.79,23.517 8.386,21.168 9.646,18.031 9.646,13.84 9.646,10.621 8.845,7.913 7.197,5.561 5.506,3.15 3.154,1.332 0,0" /></g><g
           transform="translate(921.7422,833.4092)"
           id="g44"><path
             id="path46"
             style="fill:#d91f33;fill-opacity:1;fill-rule:nonzero;stroke:none"
             d="m 0,0 c -3.65,-3.756 -8.742,-5.581 -15.566,-5.581 h -17.175 v 43.403 h 17.175 c 6.831,0 11.922,-1.814 15.573,-5.544 C 3.674,28.526 5.458,23.257 5.458,15.99 5.458,9.016 3.67,3.784 0,0 m 10.744,55.72 c -6.279,3.814 -13.621,5.746 -21.821,5.746 h -40.651 c -1.586,0 -3.11,-0.631 -4.232,-1.754 -1.122,-1.122 -1.753,-2.645 -1.753,-4.233 V -66.525 c 0,-1.588 0.631,-3.111 1.753,-4.233 1.122,-1.123 2.646,-1.754 4.232,-1.754 h 13.001 c 1.587,0 3.11,0.631 4.233,1.754 1.122,1.122 1.753,2.645 1.753,4.233 v 37.393 h 21.664 c 8.207,0 15.549,1.935 21.818,5.746 6.277,3.804 11.258,9.214 14.806,16.075 3.506,6.784 5.283,14.683 5.283,23.654 0,8.797 -1.78,16.669 -5.29,23.4 -3.548,6.793 -8.526,12.169 -14.796,15.977" /></g><g
           transform="translate(1046.5527,803.7158)"
           id="g48"><path
             id="path50"
             style="fill:#d91f33;fill-opacity:1;fill-rule:nonzero;stroke:none"
             d="m 0,0 c -2.626,-6.563 -6.383,-11.676 -11.162,-15.196 -4.777,-3.506 -10.338,-5.211 -17.004,-5.211 -6.674,0 -12.241,1.694 -17.015,5.177 -4.79,3.493 -8.573,8.594 -11.248,15.162 -2.749,6.758 -4.146,14.898 -4.146,24.372 0,9.351 1.393,17.504 4.146,24.232 2.671,6.533 6.465,11.605 11.273,15.066 4.803,3.461 10.361,5.146 16.99,5.146 6.567,0 12.094,-1.694 16.894,-5.177 4.807,-3.492 8.587,-8.577 11.238,-15.114 C 2.694,41.729 4.078,33.601 4.078,24.126 4.078,14.881 2.705,6.763 0,0 m 2.534,84.688 c -8.67,5.694 -19.001,8.583 -30.7,8.583 -11.755,0 -22.113,-2.873 -30.779,-8.536 -8.653,-5.653 -15.409,-13.778 -20.079,-24.15 -4.591,-10.203 -6.92,-22.41 -6.92,-36.459 0,-13.874 2.315,-26.092 6.879,-36.313 4.636,-10.405 11.378,-18.55 20.038,-24.208 8.666,-5.663 19.048,-8.536 30.861,-8.536 11.758,0 22.102,2.89 30.748,8.588 8.625,5.688 15.35,13.83 19.989,24.197 4.561,10.194 6.876,22.398 6.876,36.45 0,13.871 -2.315,26.06 -6.879,36.233 -4.636,10.338 -11.379,18.46 -20.034,24.151" /></g><g
           transform="translate(1149.8711,837.707)"
           id="g52"><path
             id="path54"
             style="fill:#d91f33;fill-opacity:1;fill-rule:nonzero;stroke:none"
             d="m 0,0 c -3.137,-3.273 -7.554,-4.862 -13.505,-4.862 h -21.746 v 38.475 h 21.185 c 5.971,0 10.495,-1.633 13.823,-4.985 C 3.092,25.259 4.711,20.671 4.711,14.418 4.711,8.111 3.126,3.259 0,0 m 23.752,-9.858 c 4.308,6.988 6.492,15.212 6.492,24.629 0,8.526 -1.719,16.041 -5.108,22.338 -3.442,6.393 -8.403,11.396 -14.747,14.874 -6.274,3.442 -13.717,5.185 -22.13,5.185 h -42.492 c -1.588,0 -3.111,-0.631 -4.233,-1.754 -1.123,-1.122 -1.754,-2.644 -1.754,-4.232 V -70.823 c 0,-1.588 0.631,-3.111 1.754,-4.233 1.122,-1.123 2.645,-1.754 4.233,-1.754 h 12.997 c 1.587,0 3.109,0.631 4.232,1.754 1.122,1.122 1.753,2.645 1.753,4.233 v 42.67 h 18.986 L 5.674,-73.446 c 0.438,-0.905 1.122,-1.667 1.973,-2.2 l 0.551,-0.346 c 0.852,-0.534 1.836,-0.818 2.841,-0.818 h 16.244 c 1.854,0 3.575,0.96 4.55,2.538 0.975,1.577 1.063,3.547 0.233,5.206 l -22.9,45.754 c 6.009,2.979 10.905,7.493 14.586,13.454" /></g><g
           transform="translate(1277.041,894.875)"
           id="g56"><path
             id="path58"
             style="fill:#d91f33;fill-opacity:1;fill-rule:nonzero;stroke:none"
             d="m 0,0 h -83.787 c -1.587,0 -3.109,-0.631 -4.233,-1.754 -1.122,-1.122 -1.752,-2.644 -1.752,-4.232 v -12.11 c 0,-1.588 0.63,-3.11 1.752,-4.232 1.124,-1.123 2.646,-1.754 4.233,-1.754 h 29.372 v -103.909 c 0,-1.588 0.63,-3.111 1.753,-4.233 1.122,-1.123 2.644,-1.754 4.232,-1.754 h 13.076 c 1.587,0 3.11,0.631 4.233,1.754 1.122,1.122 1.753,2.645 1.753,4.233 V -24.082 H 0 c 1.587,0 3.109,0.631 4.232,1.754 1.122,1.122 1.753,2.644 1.753,4.232 v 12.11 c 0,1.588 -0.631,3.11 -1.753,4.232 C 3.109,-0.631 1.587,0 0,0" /></g><g
           transform="translate(1916.6504,534.6973)"
           id="g60"><path
             id="path62"
             style="fill:#4be071;fill-opacity:1;fill-rule:nonzero;stroke:none"
             d="m 0,0 c 0,-177.185 -143.637,-320.821 -320.821,-320.821 -177.185,0 -320.822,143.636 -320.822,320.821 0,177.185 143.637,320.821 320.822,320.821 C -143.637,320.821 0,177.185 0,0" /></g><g
           transform="translate(1764.7637,636.3721)"
           id="g64"><path
             id="path66"
             style="fill:#ffffff;fill-opacity:1;fill-rule:nonzero;stroke:none"
             d="m 0,0 c -60.512,-71.618 -119.419,-156.899 -165.777,-239.297 -11.697,-20.804 -34.401,-32.599 -58.154,-30.567 -0.36,0.033 -0.754,0.033 -1.114,0.098 -22.475,1.868 -42.1,15.825 -50.912,36.563 -16.283,38.332 -38.431,72.863 -62.02,103.333 -8.55,11.041 -5.176,27.127 7.175,33.68 l 0.852,0.425 c 32.893,17.43 73.65,6.127 92.947,-25.718 7.109,-11.696 14.187,-23.392 21.296,-35.121 49.471,64.28 86.1,106.837 136.718,153.819 24.407,22.672 49.405,36.989 64.312,36.366 C 2.229,32.86 10.943,12.941 0,0" /></g></g></g></g></svg>
