<?xml version="1.0" encoding="UTF-8" standalone="no"?>
<svg
   xmlns:dc="http://purl.org/dc/elements/1.1/"
   xmlns:cc="http://creativecommons.org/ns#"
   xmlns:rdf="http://www.w3.org/1999/02/22-rdf-syntax-ns#"
   xmlns:svg="http://www.w3.org/2000/svg"
   xmlns="http://www.w3.org/2000/svg"
   viewBox="0 0 1066.6667 1066.6667"
   xml:space="preserve"
   id="svg2"
   version="1.1"><metadata
     id="metadata8"><rdf:RDF><cc:Work
         rdf:about=""><dc:format>image/svg+xml</dc:format><dc:type
           rdf:resource="http://purl.org/dc/dcmitype/StillImage" /></cc:Work></rdf:RDF></metadata><defs
     id="defs6"><clipPath
       id="clipPath18"
       clipPathUnits="userSpaceOnUse"><path
         id="path16"
         d="M 0,800 H 800 V 0 H 0 Z" /></clipPath></defs><g
     transform="matrix(1.3333333,0,0,-1.3333333,0,1066.6667)"
     id="g10"><g
       id="g12"><g
         clip-path="url(#clipPath18)"
         id="g14"><g
           transform="translate(355.8252,226.1309)"
           id="g20"><path
             id="path22"
             style="fill:#d91f33;fill-opacity:1;fill-rule:evenodd;stroke:none"
             d="M 0,0 V 9.859 L 45.235,9.91 V 0.051 Z m -9.556,4.816 0.781,0.404 0.757,0.403 V 5.598 l 2.824,1.488 4.311,2.268 V 4.816 0.253 L -5.194,2.547 -8.018,4.01 -8.775,4.413 Z m 1.059,-18.987 v 11.448 c 0,0.152 0.125,0.252 0.252,0.252 h 1.135 v -4.135 h 1.109 v 4.135 h 2.95 v -2.067 h 1.11 v 2.067 h 2.95 v -4.135 h 1.135 v 4.135 h 2.949 v -2.067 h 1.11 v 2.067 h 2.95 v -4.135 h 1.11 v 4.135 h 2.949 v -2.067 h 1.136 v 2.067 h 2.949 l -0.025,-4.135 h 1.135 v 4.135 h 2.949 v -2.067 h 1.11 v 2.067 h 2.951 v -4.161 h 1.109 l 0.026,4.161 h 2.925 v -2.067 h 1.133 v 2.067 h 2.951 v -4.161 h 1.109 v 4.161 h 2.951 v -2.092 h 1.109 v 2.092 h 2.95 v -4.161 h 1.134 v 4.161 h 2.168 c 0.153,0 0.253,-0.126 0.253,-0.277 v -11.448 c 0,-0.126 -0.1,-0.251 -0.253,-0.251 l -53.227,0.024 c -0.151,0 -0.252,0.101 -0.252,0.252" /></g></g></g></g></svg>
