<?xml version="1.0" encoding="UTF-8" standalone="no"?>
<svg
   xmlns:dc="http://purl.org/dc/elements/1.1/"
   xmlns:cc="http://creativecommons.org/ns#"
   xmlns:rdf="http://www.w3.org/1999/02/22-rdf-syntax-ns#"
   xmlns:svg="http://www.w3.org/2000/svg"
   xmlns="http://www.w3.org/2000/svg"
   viewBox="0 0 600 600"
   xml:space="preserve"
   id="svg2"
   version="1.1"><metadata
     id="metadata8"><rdf:RDF><cc:Work
         rdf:about=""><dc:format>image/svg+xml</dc:format><dc:type
           rdf:resource="http://purl.org/dc/dcmitype/StillImage" /></cc:Work></rdf:RDF></metadata><defs
     id="defs6"><clipPath
       id="clipPath18"
       clipPathUnits="userSpaceOnUse"><path
         id="path16"
         d="M 0,450 H 450 V 0 H 0 Z" /></clipPath></defs><g
     transform="matrix(1.3333333,0,0,-1.3333333,0,600)"
     id="g10"><g
       id="g12"><g
         clip-path="url(#clipPath18)"
         id="g14"><g
           transform="translate(236.1826,269.7803)"
           id="g20"><path
             id="path22"
             style="fill:#d91f33;fill-opacity:1;fill-rule:nonzero;stroke:none"
             d="m 0,0 h -33.133 c -1.161,0 -2.1,-0.94 -2.1,-2.102 v -22.813 c 0,-1.161 0.939,-2.102 2.1,-2.102 h 6.459 v -9.027 l 8.889,9.027 H 0 c 1.158,0 2.099,0.941 2.099,2.102 V -2.102 C 2.099,-0.94 1.158,0 0,0" /></g><g
           transform="translate(221.0195,254.3115)"
           id="g24"><path
             id="path26"
             style="fill:#eeb424;fill-opacity:1;fill-rule:nonzero;stroke:none"
             d="M 0,0 -2.028,7.374 -4.152,0 Z m -3.91,11.086 c 0.343,0.051 0.668,0.086 0.978,0.11 0.31,0.027 0.651,0.037 1.027,0.037 0.325,0 0.641,-0.01 0.951,-0.037 0.309,-0.024 0.65,-0.059 1.026,-0.11 L 5.567,-6.471 C 4.899,-6.569 4.248,-6.618 3.613,-6.618 c -0.62,0 -1.219,0.049 -1.806,0.147 l -0.976,3.515 h -5.813 l -1,-3.515 c -0.587,-0.098 -1.15,-0.147 -1.687,-0.147 -0.602,0 -1.197,0.049 -1.782,0.147 z" /></g><g
           transform="translate(261.8193,261.043)"
           id="g28"><path
             id="path30"
             style="fill:#000000;fill-opacity:1;fill-rule:nonzero;stroke:none"
             d="m 0,0 h -33.134 c -1.158,0 -2.098,-0.94 -2.098,-2.099 v -22.814 c 0,-1.16 0.94,-2.101 2.098,-2.101 h 17.785 l 8.889,-9.029 v 9.029 H 0 c 1.16,0 2.099,0.941 2.099,2.101 V -2.099 C 2.099,-0.94 1.16,0 0,0" /></g><g
           transform="translate(254.9131,246.0449)"
           id="g32"><path
             id="path34"
             style="fill:#d91f33;fill-opacity:1;fill-rule:nonzero;stroke:none"
             d="m 0,0 -2.644,1.853 c -0.358,0.251 -0.998,0.453 -1.433,0.453 h -3.979 v 5.356 h 5.241 c 0.435,0 0.499,0.202 0.14,0.452 l -2.643,1.851 c -0.357,0.251 -0.998,0.453 -1.434,0.453 h -9.302 c -0.432,0 -0.496,-0.202 -0.14,-0.453 l 2.646,-1.851 c 0.357,-0.25 0.996,-0.452 1.431,-0.452 h 1.305 v -3.04 l -3.212,3.214 c -0.308,0.305 -0.497,0.208 -0.42,-0.22 l 0.562,-3.18 c 0.075,-0.429 0.385,-1.025 0.693,-1.332 l 0.797,-0.798 h -6.334 c -0.435,0 -0.499,-0.202 -0.143,-0.453 L -16.223,0 c 0.357,-0.246 0.996,-0.448 1.431,-0.448 h 3.98 v -5.95 c 0,-0.433 0.203,-0.497 0.452,-0.141 l 1.852,2.646 c 0.248,0.357 0.452,0.998 0.452,1.431 v 0.434 l 5.225,-5.227 c 0.308,-0.307 0.495,-0.209 0.42,0.22 l -0.561,3.18 c -0.077,0.426 -0.386,1.024 -0.694,1.332 l -2.075,2.075 h 5.6 C 0.295,-0.448 0.358,-0.246 0,0" /></g></g></g></g></svg>
