<svg
   xmlns="http://www.w3.org/2000/svg"
   viewBox="0 0 7559.0532 5291.3335"
   xml:space="preserve"
   id="svg2"
   version="1.1">
  <g
     transform="matrix(1.3333333,0,0,-1.3333333,0,5291.3333)"
     id="g10"><g
       id="g12"><g
         clip-path="url(#clipPath18)"
         id="g14"><g
           transform="translate(1927.1982,1860.2695)"
           id="g20"><path
             id="path22"
             style="fill:#d81b32;fill-opacity:1;fill-rule:nonzero;stroke:none"
             d="m 0,0 c -133.139,0 -199.703,60.441 -199.703,181.33 0,118.754 66.564,178.135 199.703,178.135 H 259.613 V 199.703 H 0 c -26.629,0 -39.94,-6.129 -39.94,-18.373 0,-14.378 13.311,-21.568 39.94,-21.568 h 119.821 c 133.133,0 199.702,-59.38 199.702,-178.135 0,-120.888 -66.569,-181.329 -199.702,-181.329 H -139.792 V -39.94 h 259.613 c 26.623,0 39.941,7.189 39.941,21.567 C 159.762,-6.128 146.444,0 119.821,0 Z" /></g><path
           id="path24"
           style="fill:#d81b32;fill-opacity:1;fill-rule:nonzero;stroke:none"
           d="m 2435.641,1660.567 h -159.762 v 559.167 h 159.762 z" /><g
           transform="translate(2662.5024,1860.2695)"
           id="g26"><path
             id="path28"
             style="fill:#d81b32;fill-opacity:1;fill-rule:nonzero;stroke:none"
             d="m 0,0 c -133.139,0 -199.703,60.441 -199.703,181.33 0,118.754 66.564,178.135 199.703,178.135 H 259.613 V 199.703 H 0 c -26.629,0 -39.94,-6.129 -39.94,-18.373 0,-14.378 13.311,-21.568 39.94,-21.568 h 119.821 c 133.134,0 199.702,-59.38 199.702,-178.135 0,-120.888 -66.568,-181.329 -199.702,-181.329 H -139.792 V -39.94 h 259.613 c 26.623,0 39.941,7.189 39.941,21.567 C 159.762,-6.128 146.444,0 119.821,0 Z" /></g><g
           transform="translate(3410.5879,2219.7344)"
           id="g30"><path
             id="path32"
             style="fill:#d81b32;fill-opacity:1;fill-rule:nonzero;stroke:none"
             d="m 0,0 v -159.762 h -239.643 v -39.941 h 199.702 v -159.762 h -199.702 v -39.94 H 0 V -559.167 H -399.405 V 0 Z" /></g><g
           transform="translate(3622.2725,1860.2695)"
           id="g34"><path
             id="path36"
             style="fill:#d81b32;fill-opacity:1;fill-rule:nonzero;stroke:none"
             d="m 0,0 c -133.14,0 -199.702,60.441 -199.702,181.33 0,118.754 66.562,178.135 199.702,178.135 H 259.613 V 199.703 H 0 c -26.629,0 -39.94,-6.129 -39.94,-18.373 0,-14.378 13.311,-21.568 39.94,-21.568 h 119.821 c 133.133,0 199.702,-59.38 199.702,-178.135 0,-120.888 -66.569,-181.329 -199.702,-181.329 H -139.792 V -39.94 h 259.613 c 26.623,0 39.941,7.189 39.941,21.567 C 159.762,-6.128 146.444,0 119.821,0 Z" /></g></g></g></g></svg>
